<svg width="17" height="18" viewBox="0 0 17 18" fill="none" xmlns="http://www.w3.org/2000/svg">
<path d="M8.46959 15.6688C7.57812 14.9084 6.75181 14.0747 5.99929 13.1766C4.87001 11.8278 3.52899 9.81912 3.52899 7.90499C3.5285 6.92743 3.81802 5.97169 4.36091 5.15874C4.9038 4.34579 5.67566 3.71216 6.5788 3.33804C7.48194 2.96392 8.47576 2.86614 9.4345 3.05706C10.3932 3.24798 11.2738 3.71902 11.9647 4.41057C12.4247 4.86854 12.7893 5.41319 13.0374 6.013C13.2856 6.61282 13.4123 7.25588 13.4102 7.90499C13.4102 9.81912 12.0692 11.8278 10.9399 13.1766C10.1874 14.0747 9.36105 14.9084 8.46959 15.6688ZM8.46959 5.78759C7.90802 5.78759 7.36945 6.01067 6.97236 6.40776C6.57527 6.80485 6.35219 7.34342 6.35219 7.90499C6.35219 8.46656 6.57527 9.00513 6.97236 9.40222C7.36945 9.7993 7.90802 10.0224 8.46959 10.0224C9.03116 10.0224 9.56973 9.7993 9.96682 9.40222C10.3639 9.00513 10.587 8.46656 10.587 7.90499C10.587 7.34342 10.3639 6.80485 9.96682 6.40776C9.56973 6.01067 9.03116 5.78759 8.46959 5.78759Z" fill="white"/>
</svg>
