<svg width="11" height="10" viewBox="0 0 11 10" fill="none" xmlns="http://www.w3.org/2000/svg">
<path d="M2.08174 0.725098C1.63248 0.725098 1.20163 0.901464 0.883955 1.2154C0.566283 1.52933 0.387817 1.95512 0.387817 2.39909V2.56732L5.46957 5.27166L10.5513 2.56816V2.39909C10.5513 1.95512 10.3729 1.52933 10.0552 1.2154C9.73752 0.901464 9.30667 0.725098 8.85741 0.725098H2.08174ZM10.5513 3.51815L5.6703 6.11535C5.60861 6.14817 5.53964 6.16535 5.46957 6.16535C5.39951 6.16535 5.33054 6.14817 5.26884 6.11535L0.387817 3.51815V7.42106C0.387817 7.86503 0.566283 8.29082 0.883955 8.60475C1.20163 8.91868 1.63248 9.09505 2.08174 9.09505H8.85741C9.30667 9.09505 9.73752 8.91868 10.0552 8.60475C10.3729 8.29082 10.5513 7.86503 10.5513 7.42106V3.51815Z" fill="white"/>
</svg>
