<svg width="17" height="15" viewBox="0 0 17 15" fill="none" xmlns="http://www.w3.org/2000/svg">
<path d="M2.83333 0.209961C2.08189 0.209961 1.36122 0.50496 0.829864 1.03006C0.298511 1.55516 0 2.26735 0 3.00996V3.29136L8.5 7.81476L17 3.29276V3.00996C17 2.26735 16.7015 1.55516 16.1701 1.03006C15.6388 0.50496 14.9181 0.209961 14.1667 0.209961H2.83333ZM17 4.88176L8.83575 9.22596C8.73256 9.28086 8.61719 9.30959 8.5 9.30959C8.38281 9.30959 8.26744 9.28086 8.16425 9.22596L0 4.88176V11.41C0 12.1526 0.298511 12.8648 0.829864 13.3899C1.36122 13.915 2.08189 14.21 2.83333 14.21H14.1667C14.9181 14.21 15.6388 13.915 16.1701 13.3899C16.7015 12.8648 17 12.1526 17 11.41V4.88176Z" fill="#F73E20"/>
</svg>
