<svg width="22" height="22" viewBox="0 0 22 22" fill="none" xmlns="http://www.w3.org/2000/svg">
<path d="M7.15001 1.8335H14.85C17.7833 1.8335 20.1667 4.21683 20.1667 7.15016V14.8502C20.1667 16.2602 19.6065 17.6125 18.6095 18.6096C17.6124 19.6067 16.2601 20.1668 14.85 20.1668H7.15001C4.21668 20.1668 1.83334 17.7835 1.83334 14.8502V7.15016C1.83334 5.7401 2.39349 4.38778 3.39056 3.39071C4.38763 2.39364 5.73994 1.8335 7.15001 1.8335ZM6.96668 3.66683C6.09146 3.66683 5.25209 4.01451 4.63322 4.63338C4.01435 5.25225 3.66668 6.09161 3.66668 6.96683V15.0335C3.66668 16.8577 5.14251 18.3335 6.96668 18.3335H15.0333C15.9086 18.3335 16.7479 17.9858 17.3668 17.3669C17.9857 16.7481 18.3333 15.9087 18.3333 15.0335V6.96683C18.3333 5.14266 16.8575 3.66683 15.0333 3.66683H6.96668ZM15.8125 5.04183C16.1164 5.04183 16.4079 5.16255 16.6227 5.37744C16.8376 5.59232 16.9583 5.88377 16.9583 6.18766C16.9583 6.49156 16.8376 6.783 16.6227 6.99789C16.4079 7.21277 16.1164 7.3335 15.8125 7.3335C15.5086 7.3335 15.2172 7.21277 15.0023 6.99789C14.7874 6.783 14.6667 6.49156 14.6667 6.18766C14.6667 5.88377 14.7874 5.59232 15.0023 5.37744C15.2172 5.16255 15.5086 5.04183 15.8125 5.04183ZM11 6.41683C12.2156 6.41683 13.3814 6.89971 14.2409 7.75926C15.1005 8.6188 15.5833 9.78459 15.5833 11.0002C15.5833 12.2157 15.1005 13.3815 14.2409 14.2411C13.3814 15.1006 12.2156 15.5835 11 15.5835C9.78443 15.5835 8.61865 15.1006 7.7591 14.2411C6.89956 13.3815 6.41668 12.2157 6.41668 11.0002C6.41668 9.78459 6.89956 8.6188 7.7591 7.75926C8.61865 6.89971 9.78443 6.41683 11 6.41683ZM11 8.25016C10.2707 8.25016 9.57119 8.53989 9.05547 9.05562C8.53974 9.57134 8.25001 10.2708 8.25001 11.0002C8.25001 11.7295 8.53974 12.429 9.05547 12.9447C9.57119 13.4604 10.2707 13.7502 11 13.7502C11.7294 13.7502 12.4288 13.4604 12.9446 12.9447C13.4603 12.429 13.75 11.7295 13.75 11.0002C13.75 10.2708 13.4603 9.57134 12.9446 9.05562C12.4288 8.53989 11.7294 8.25016 11 8.25016Z" fill="white"/>
</svg>
