<svg width="22" height="22" viewBox="0 0 22 22" fill="none" xmlns="http://www.w3.org/2000/svg">
<g clip-path="url(#clip0_814_648)">
<path fill-rule="evenodd" clip-rule="evenodd" d="M0.916687 2.60134C0.916687 2.15449 1.0942 1.72595 1.41016 1.40998C1.72613 1.09401 2.15467 0.916506 2.60152 0.916506H19.3967C19.6181 0.916144 19.8375 0.959464 20.0421 1.04398C20.2468 1.1285 20.4328 1.25257 20.5895 1.40906C20.7462 1.56556 20.8704 1.75143 20.9552 1.95602C21.0399 2.1606 21.0835 2.3799 21.0834 2.60134V19.3965C21.0836 19.618 21.0402 19.8374 20.9555 20.042C20.8709 20.2467 20.7468 20.4327 20.5902 20.5894C20.4336 20.746 20.2477 20.8703 20.0431 20.955C19.8384 21.0397 19.6191 21.0833 19.3976 21.0832H2.60152C2.38019 21.0832 2.16102 21.0396 1.95655 20.9548C1.75208 20.8701 1.5663 20.7459 1.40984 20.5894C1.25338 20.4328 1.12929 20.247 1.04467 20.0425C0.960058 19.8379 0.916567 19.6188 0.916687 19.3974V2.60134ZM8.89902 8.60551H11.6298V9.97684C12.0239 9.18851 13.0323 8.47901 14.5475 8.47901C17.4524 8.47901 18.1409 10.0493 18.1409 12.9303V18.2672H15.2011V13.5867C15.2011 11.9458 14.8069 11.02 13.8059 11.02C12.4172 11.02 11.8397 12.0183 11.8397 13.5867V18.2672H8.89902V8.60551ZM3.85735 18.1416H6.79802V8.47901H3.85735V18.1407V18.1416ZM7.21877 5.32751C7.22431 5.57929 7.17951 5.82964 7.08699 6.06388C6.99447 6.29811 6.85609 6.5115 6.67998 6.69154C6.50387 6.87157 6.29358 7.01461 6.06144 7.11226C5.8293 7.20992 5.57999 7.26022 5.32815 7.26022C5.0763 7.26022 4.82699 7.20992 4.59485 7.11226C4.36271 7.01461 4.15242 6.87157 3.97631 6.69154C3.8002 6.5115 3.66182 6.29811 3.5693 6.06388C3.47678 5.82964 3.43198 5.57929 3.43752 5.32751C3.4484 4.83329 3.65237 4.36298 4.00575 4.0173C4.35912 3.67162 4.83381 3.47806 5.32815 3.47806C5.82248 3.47806 6.29717 3.67162 6.65054 4.0173C7.00392 4.36298 7.20789 4.83329 7.21877 5.32751V5.32751Z" fill="white"/>
</g>
<defs>
<clipPath id="clip0_814_648">
<rect width="22" height="22" fill="white"/>
</clipPath>
</defs>
</svg>
