<svg width="21" height="29" viewBox="0 0 21 29" fill="none" xmlns="http://www.w3.org/2000/svg">
<path d="M3.83868 1.45708L5.34021 0.977031C6.74824 0.527688 8.25257 1.25473 8.85541 2.67533L10.0555 5.50535C10.5774 6.73756 10.2872 8.18746 9.33825 9.08894L6.69382 11.598C6.85709 13.0995 7.36225 14.5773 8.20791 16.0314C9.01097 17.4383 10.0881 18.6696 11.3756 19.6527L14.5517 18.5921C15.7546 18.1916 17.0664 18.6535 17.8032 19.7378L19.5238 22.2636C20.382 23.5251 20.2272 25.2639 19.1624 26.3328L18.0223 27.4785C16.8864 28.6186 15.2634 29.0331 13.7633 28.5642C10.2188 27.459 6.96315 24.1782 3.99078 18.7219C1.01423 13.2572 -0.0365606 8.61866 0.839799 4.8118C1.2082 3.20979 2.34831 1.93293 3.83868 1.45708Z" fill="white"/>
</svg>
